<?xml version="1.0" encoding="UTF-8"?>
<svg id="Layer_1" data-name="Layer 1" xmlns="http://www.w3.org/2000/svg" width="1073.4" height="1145.1" version="1.1" viewBox="0 0 1073.4 1145.1">
  <defs>
    <style>
      .cls-1 {
        fill: #236eb4;
      }

      .cls-1, .cls-2, .cls-3, .cls-4, .cls-5, .cls-6, .cls-7, .cls-8, .cls-9, .cls-10, .cls-11, .cls-12, .cls-13, .cls-14, .cls-15, .cls-16, .cls-17, .cls-18 {
        stroke-width: 0px;
      }

      .cls-2 {
        fill: #009849;
      }

      .cls-3 {
        fill: #059849;
      }

      .cls-4 {
        fill: #f7b21b;
      }

      .cls-4, .cls-19, .cls-20 {
        isolation: isolate;
      }

      .cls-4, .cls-21 {
        opacity: .9;
      }

      .cls-5 {
        fill: #e22e2a;
      }

      .cls-6 {
        fill: #e12a2a;
      }

      .cls-22 {
        stroke: #d1d3d4;
        stroke-miterlimit: 10;
      }

      .cls-22, .cls-16 {
        fill: #fff;
      }

      .cls-7 {
        fill: #2470b2;
      }

      .cls-19 {
        fill: #000;
        font-family: ArialMT, Arial;
        font-size: 28px;
      }

      .cls-8 {
        fill: #f7b21c;
      }

      .cls-9 {
        fill: #e32829;
      }

      .cls-10 {
        fill: #e42527;
      }

      .cls-11 {
        fill: #f1af1d;
      }

      .cls-12 {
        fill: #226db4;
      }

      .cls-13 {
        fill: #f6b11a;
      }

      .cls-14 {
        fill: #f9b21d;
      }

      .cls-15 {
        fill: #089949;
      }

      .cls-17 {
        fill: #e32828;
      }

      .cls-18 {
        fill: #246fb3;
      }
    </style>
  </defs>
  <path class="cls-22" d="M250.9,283.5H24.2c-7.8,0-14.2-6.4-14.2-14.2V24.2c0-7.8,6.4-14.2,14.2-14.2h226.8c7.8,0,14.2,6.4,14.2,14.2v245.1c0,7.8-6.3,14.2-14.2,14.2Z"/>
  <text class="cls-19" transform="translate(51 211.7)"><tspan x="0" y="0">Zoho Projects</tspan></text>
  <path class="cls-22" d="M515.9,283.5h-226.8c-7.8,0-14.2-6.4-14.2-14.2V24.2c0-7.8,6.4-14.2,14.2-14.2h226.8c7.8,0,14.2,6.4,14.2,14.2v245.1c0,7.8-6.3,14.2-14.2,14.2Z"/>
  <text class="cls-19" transform="translate(340.7 211.7)"><tspan x="0" y="0">Zoho Mail</tspan></text>
  <path class="cls-22" d="M781.1,283.5h-226.8c-7.8,0-14.2-6.4-14.2-14.2V24.2c0-7.8,6.3-14.2,14.2-14.2h226.8c7.8,0,14.2,6.4,14.2,14.2v245.1c0,7.8-6.3,14.2-14.2,14.2Z"/>
  <text class="cls-19" transform="translate(601.9 211.7)"><tspan x="0" y="0">Zoho Flow</tspan></text>
  <path class="cls-22" d="M1046.2,283.5h-226.8c-7.8,0-14.2-6.4-14.2-14.2V24.2c0-7.8,6.3-14.2,14.2-14.2h226.8c7.8,0,14.2,6.4,14.2,14.2v245.1c0,7.8-6.3,14.2-14.2,14.2Z"/>
  <text class="cls-19" transform="translate(857.8 211.7)"><tspan x="0" y="0">Zoho Books</tspan></text>
  <path class="cls-22" d="M250.9,567.5H24.2c-7.8,0-14.2-6.3-14.2-14.2v-245.1c0-7.8,6.4-14.2,14.2-14.2h226.8c7.8,0,14.2,6.4,14.2,14.2v245.1c0,7.8-6.3,14.2-14.2,14.2Z"/>
  <text class="cls-19" transform="translate(73.9 495.7)"><tspan x="0" y="0">Zoho Sign</tspan></text>
  <path class="cls-22" d="M515.9,567.5h-226.8c-7.8,0-14.2-6.3-14.2-14.2v-245.1c0-7.8,6.4-14.2,14.2-14.2h226.8c7.8,0,14.2,6.4,14.2,14.2v245.1c0,7.8-6.3,14.2-14.2,14.2Z"/>
  <text class="cls-19" transform="translate(327.6 495.7)"><tspan x="0" y="0">Zoho Forms</tspan></text>
  <path class="cls-22" d="M781.1,567.5h-226.8c-7.8,0-14.2-6.3-14.2-14.2v-245.1c0-7.8,6.3-14.2,14.2-14.2h226.8c7.8,0,14.2,6.4,14.2,14.2v245.1c0,7.8-6.3,14.2-14.2,14.2Z"/>
  <rect class="cls-16" x="616.7" y="334" width="102" height="102"/>
  <text class="cls-19" transform="translate(573 495.7)"><tspan x="0" y="0">Zoho Inventory</tspan></text>
  <path class="cls-22" d="M1046.2,567.5h-226.8c-7.8,0-14.2-6.3-14.2-14.2v-245.1c0-7.8,6.3-14.2,14.2-14.2h226.8c7.8,0,14.2,6.4,14.2,14.2v245.1c0,7.8-6.3,14.2-14.2,14.2Z"/>
  <text class="cls-19" transform="translate(843.6 495.7)"><tspan x="0" y="0">Zoho Expense</tspan></text>
  <path class="cls-22" d="M250.9,851.9H24.2c-7.8,0-14.2-6.3-14.2-14.2v-245.1c0-7.8,6.4-14.2,14.2-14.2h226.8c7.8,0,14.2,6.3,14.2,14.2v245.1c0,7.8-6.3,14.2-14.2,14.2Z"/>
  <text class="cls-19" transform="translate(56.9 780.1)"><tspan x="0" y="0">Zoho Invoice</tspan></text>
  <path class="cls-22" d="M515.9,851.9h-226.8c-7.8,0-14.2-6.3-14.2-14.2v-245.1c0-7.8,6.4-14.2,14.2-14.2h226.8c7.8,0,14.2,6.3,14.2,14.2v245.1c0,7.8-6.3,14.2-14.2,14.2Z"/>
  <text class="cls-19" transform="translate(296.2 780.1)"><tspan x="0" y="0">Zoho Campaigns</tspan></text>
  <path class="cls-22" d="M781.1,851.9h-226.8c-7.8,0-14.2-6.3-14.2-14.2v-245.1c0-7.8,6.3-14.2,14.2-14.2h226.8c7.8,0,14.2,6.3,14.2,14.2v245.1c0,7.8-6.3,14.2-14.2,14.2Z"/>
  <text class="cls-19" transform="translate(575.1 780.1)"><tspan x="0" y="0">Zoho Analytics</tspan></text>
  <path class="cls-22" d="M1046.2,851.9h-226.8c-7.8,0-14.2-6.3-14.2-14.2v-245.1c0-7.8,6.3-14.2,14.2-14.2h226.8c7.8,0,14.2,6.3,14.2,14.2v245.1c0,7.8-6.3,14.2-14.2,14.2Z"/>
  <text class="cls-19" transform="translate(849 780.1)"><tspan x="0" y="0">Zoho SalesIQ</tspan></text>
  <path class="cls-22" d="M250.9,1135.4H24.2c-7.8,0-14.2-6.3-14.2-14.2v-245.1c0-7.8,6.4-14.2,14.2-14.2h226.8c7.8,0,14.2,6.3,14.2,14.2v245.1c0,7.8-6.3,14.2-14.2,14.2Z"/>
  <text class="cls-19" transform="translate(58.7 1063.6)"><tspan x="0" y="0">Zoho Survey</tspan></text>
  <path class="cls-22" d="M515.9,1135.4h-226.8c-7.8,0-14.2-6.3-14.2-14.2v-245.1c0-7.8,6.4-14.2,14.2-14.2h226.8c7.8,0,14.2,6.3,14.2,14.2v245.1c0,7.8-6.3,14.2-14.2,14.2Z"/>
  <text class="cls-19" transform="translate(335 1063.6)"><tspan x="0" y="0">Zoho Desk</tspan></text>
  <path class="cls-22" d="M781.1,1135.4h-226.8c-7.8,0-14.2-6.3-14.2-14.2v-245.1c0-7.8,6.3-14.2,14.2-14.2h226.8c7.8,0,14.2,6.3,14.2,14.2v245.1c0,7.8-6.3,14.2-14.2,14.2Z"/>
  <text class="cls-19" transform="translate(599.1 1063.6)"><tspan x="0" y="0">Zoho Vault</tspan></text>
  <path class="cls-22" d="M1046.2,1135.4h-226.8c-7.8,0-14.2-6.3-14.2-14.2v-245.1c0-7.8,6.3-14.2,14.2-14.2h226.8c7.8,0,14.2,6.3,14.2,14.2v245.1c0,7.8-6.3,14.2-14.2,14.2Z"/>
  <text class="cls-19" transform="translate(858.9 1063.6)"><tspan x="0" y="0">Zoho Writer</tspan></text>
  <g>
    <g class="cls-21">
      <path class="cls-13" d="M126.4,150.9c-1.1,0-1.7-.6-2.2-1.1l-18.3-18.3c-1.1-1.1-1.7-3.3-.6-4.4s3.3-1.7,4.4-.6l.6.6,18.3,18.3c1.1,1.1,1.1,3.3,0,4.4s-1.1,1.1-2.2,1.1Z"/>
    </g>
    <g class="cls-21">
      <path class="cls-13" d="M126.4,117c-1.1,0-1.7-.6-2.2-1.1l-18.9-18.3c-1.1-1.1-1.7-3.3-.6-4.4s3.3-1.7,4.4-.6l.6.6,18.3,18.3c1.1,1.1,1.1,3.3,0,4.4,0,1.1-1.1,1.1-1.7,1.1Z"/>
    </g>
    <g class="cls-21">
      <path class="cls-13" d="M126.4,134.2c-1.1,0-1.7-.6-2.2-1.1l-18.3-18.3c-1.7-1.1-1.7-3.3-.6-5h0c1.1-1.1,3.3-1.1,4.4,0l18.3,18.3c1.1,1.1,1.1,3.3,0,4.4,0,.6-.5,1.7-1.7,1.7Z"/>
    </g>
    <g class="cls-21">
      <path class="cls-18" d="M148.1,129.2c-1.1,0-1.7-.6-2.2-1.1-1.1-1.1-1.1-3.3,0-4.4l36.1-36.1c1.1-1.1,3.3-1.7,4.4-.6s1.7,3.3.6,4.4l-.6.6-36.1,36.1c-.6.5-1.1,1.1-2.2,1.1Z"/>
    </g>
    <g class="cls-21">
      <path class="cls-18" d="M148.1,112.6c-1.1,0-1.7-.6-2.2-1.1-1.1-1.1-1.1-3.3,0-4.4l25-25.5-3.9-3.9-17.2,17.2c-1.1,1.1-3.3.6-4.4-.6-1.1-1.1-1.1-2.8,0-3.9l19.4-19.4c1.1-1.1,3.3-1.1,4.4,0l8.3,8.3c1.1,1.1,1.7,2.8.6,3.9l-.6.6-27.8,27.8c0,.5-1.1,1.1-1.7,1.1Z"/>
    </g>
    <g class="cls-21">
      <path class="cls-3" d="M126.4,117c-1.1,0-1.7-.6-2.2-1.1-1.1-1.1-1.1-3.3,0-4.4l21.1-21.7c1.1-1.1,3.3-1.7,4.4-.6s1.7,3.3.6,4.4l-.6.6-21.7,21.7c0,1.1-1.1,1.1-1.7,1.1Z"/>
    </g>
    <g class="cls-21">
      <path class="cls-3" d="M126.4,134.2c-1.1,0-1.7-.6-2.2-1.1-1.1-1.1-1.1-3.3,0-4.4l21.7-21.7c1.1-1.1,3.3-1.7,4.4-.6s1.7,3.3.6,4.4l-.6.6-21.7,21.7c-.6.6-1.1,1.1-2.2,1.1Z"/>
    </g>
    <g class="cls-21">
      <path class="cls-3" d="M126.4,150.9c-1.1,0-1.7-.6-2.2-1.1-1.1-1.1-1.1-3.3,0-4.4l21.7-21.7c1.1-1.1,3.3-1.7,4.4-.6s1.7,3.3.6,4.4l-.6.6-21.7,21.7c-.6.6-1.1,1.1-2.2,1.1Z"/>
    </g>
    <g class="cls-21">
      <path class="cls-9" d="M107.6,132.6c-1.1,0-1.7-.6-2.2-1.1l-16.7-16.7c-.6-1.1-1.1-1.7-1.1-2.8s.6-1.7,1.1-2.2l16.7-16.7c1.1-1.1,3.3-.6,4.4.6,1.1,1.1,1.1,2.8,0,3.9l-13.9,14.4,14.4,14.4c1.1,1.1,1.1,3.3,0,4.4-.6,1.1-1.7,1.7-2.8,1.7Z"/>
    </g>
  </g>
  <g>
    <g id="path-33">
      <path class="cls-11" d="M431.7,119.2c-1.6,0-2.8-1.1-2.8-2.2v-16.5c0-1.7-1.1-2.8-3.3-2.8h-46.7c-1.6,0-3.3,1.1-3.3,2.8h0v3.3c0,1.7-1.1,2.8-2.8,2.8h-.5c-1.6,0-2.8-1.1-2.8-2.2v-3.9c0-4.9,3.9-8.8,8.8-8.8h46.7c5,0,8.8,3.8,8.8,8.8v15.9c.6,1.7-1.1,2.8-2.2,2.8Z"/>
    </g>
    <g id="path-34">
      <path class="cls-7" d="M443.2,152.2h-82.4c-5,0-8.8-3.9-8.8-8.8v-23.6c.5-1.7,1.6-2.8,3.3-2.2,1.1,0,2.2,1.1,2.2,2.2v23.6c0,1.6,1.1,2.8,3.3,2.8h82.4c1.6,0,3.3-1.1,3.3-2.8h0v-50c0-1.1-.5-1.7-1.1-2.8l-41.2-33c-1.1-.5-2.8-.5-3.9,0l-41.2,33c-.5.6-1.1,1.7-1.1,2.8v9.9c0,1.1.5,2.2,1.6,2.8l41.2,22c1.1.6,2.2.6,2.8,0l26.4-14.3c1.6-.6,3.3,0,3.9,1.1.5,1.1,0,2.8-1.1,3.8l-26.4,14.3c-2.8,1.6-5.5,1.6-8.2,0l-41.2-22c-2.8-1.7-4.4-4.4-5-7.7v-9.9c0-2.8,1.1-4.9,3.3-6.6l41.2-33c3.3-2.8,7.7-2.8,11,0l41.2,33c2.2,1.7,3.3,3.8,3.3,6.6v50c0,4.9-3.9,8.8-8.8,8.8h0Z"/>
    </g>
  </g>
  <g>
    <g class="cls-21">
      <path class="cls-18" d="M957.8,151.5h-68.3c-1.7,0-2.8-1.1-2.8-2.8v-25c0-5.6,3.3-10,8.3-12.2l75.6-26.1c6.1-2.2,10-7.8,10-13.9s-6.7-14.4-14.4-14.4h-73.9v48.3c0,1.7-1.1,2.8-2.8,2.8s-2.8-1.1-2.8-2.8v-51.1c0-1.7,1.1-2.8,2.8-2.8h76.7c11.1,0,20.6,8.9,20.6,20.6s-5.6,16.7-13.9,19.4l-75.6,26.1c-3.3.6-5,3.3-5,6.1v21.7h65.6c6.1,0,11.7-2.2,16.1-6.7s6.7-10,6.7-16.1-1.1-8.3-3.3-12.2c-2.2-3.9-5.6-6.7-9.4-8.3-1.7-.6-2.2-2.2-1.7-3.9.6-1.7,2.2-2.2,3.9-1.1,5,2.2,8.9,6.1,11.7,10.6,2.8,4.4,4.4,10,4.4,15.6s-2.8,15-8.3,20.6c-5.6,4.4-12.8,7.8-20,7.8Z"/>
    </g>
    <g class="cls-21">
      <path class="cls-18" d="M919.4,92.6c-6.7,0-11.7-5-11.7-11.7s5-11.7,11.7-11.7,11.7,5,11.7,11.7-5.5,11.7-11.7,11.7ZM919.4,74.8c-3.3,0-6.1,2.8-6.1,6.1s2.8,6.1,6.1,6.1,6.1-2.8,6.1-6.1-2.8-6.1-6.1-6.1Z"/>
    </g>
    <g class="cls-21">
      <path class="cls-18" d="M948.9,133.7c-6.7,0-11.7-5-11.7-11.7s5-11.7,11.7-11.7,11.7,5,11.7,11.7-5.6,11.7-11.7,11.7ZM948.9,115.9c-3.3,0-6.1,2.8-6.1,6.1s2.8,6.1,6.1,6.1,6.1-2.8,6.1-6.1c-.6-3.3-3.3-6.1-6.1-6.1Z"/>
    </g>
  </g>
  <g>
    <g class="cls-21">
      <path class="cls-17" d="M642.6,420c-1.7,0-2.8-1.1-2.8-2.2l-12.7-71.8c0-1.1-1.1-2.2-2.2-2.8l-5.5-1.7c-2.2-.5-2.8-2.2-2.8-3.9.5-1.7,2.2-2.2,3.9-2.2h0l5.5,1.7c3.3,1.1,6.1,3.9,6.6,7.2l12.7,71.8c.5,2.2-.6,3.9-2.8,3.9q.5,0,0,0c.5,0,0,0,0,0Z"/>
    </g>
    <g class="cls-21">
      <path class="cls-17" d="M656.4,430c-1.7,0-2.8-1.1-2.8-2.8s1.1-2.8,2.2-2.8l51.9-9.4c2.2-.5,3.3-2.2,2.8-3.9-.5-2.2-2.2-3.3-3.9-2.8h0l-44.8,7.7c-5,1.1-9.9-2.8-11-7.7h0l-7.7-45.3c-1.1-5,2.8-9.9,7.7-11h0l44.8-7.7c5-1.1,9.9,2.8,11,7.7h0l7.2,41.4c0,1.7-1.1,3.3-2.2,3.3-1.7,0-3.3-.5-3.3-2.2l-7.2-41.4c-.5-2.2-2.2-3.3-3.9-2.8l-44.8,7.7c-2.2.5-3.3,2.2-2.8,3.9h0l7.7,44.8c.5,2.2,2.2,3.3,3.9,2.8h0l44.8-7.7c5-1.1,9.9,2.2,11,7.7,1.1,5-2.2,9.9-7.7,11h-.5l-52.5,9.4q.5,0,0,0Z"/>
    </g>
    <g class="cls-21">
      <path class="cls-8" d="M668.6,373.1c-1.7,0-2.8-1.1-2.8-2.8s1.1-2.8,2.2-2.8l17.1-2.8c1.7-.5,3.3.5,3.3,2.2.5,1.7-.5,3.3-2.2,3.3l-17.7,2.8h0Z"/>
    </g>
    <g class="cls-21">
      <path class="cls-17" d="M648.2,435.5c-6.6,0-11.6-5.5-11.6-11.6s5.5-11.6,11.6-11.6,11.6,5.5,11.6,11.6-3.9,10.5-9.9,11.6h-1.7ZM648.2,417.8h-1.1c-3.3.5-5.5,3.3-5,6.6.5,3.3,3.3,5.5,6.6,5s5.5-3.3,5-6.6c0-2.8-2.2-5-5.5-5Z"/>
    </g>
  </g>
  <g>
    <g class="cls-21">
      <path class="cls-9" d="M964.6,436c-7.5,0-14.9-2.7-21.3-8-.5-.5-1.6-.5-2.1,0l-5.9,5.9c-2.7,2.7-7.5,2.7-10.7,0l-5.3-5.3c-.5-.5-1.6-.5-2.1,0h0l-5.3,5.3c-2.7,2.7-7.5,2.7-10.1,0v-.5c-20.8-23.4-25-57-10.1-84.7,3.2-5.9,9.1-9.1,15.5-9.1h54.3c5.3,0,10.7,3.7,14.4,10.1,3.7,5.9,5.9,14.4,6.9,22.9.5,4.8-3.2,9.1-8,9.6h-28.8c0,1.6,0,3.2.5,4.8h0c.5,4.8,1.1,9.6,2.7,14.4,1.6,4.3,3.2,8.5,5.9,11.7,2.1,3.7,4.8,6.4,8,9.1,2.7,2.1,5.9,4.3,9.1,4.8,2.1.5,3.2,3.2,2.7,5.3-.5,1.6-1.6,2.7-3.2,2.7-3.2,1.1-4.8,1.1-6.9,1.1ZM906.5,345.5c-4.3,0-8.5,2.1-10.1,6.4-13.3,25.6-9.6,56.5,9.6,78.3.5.5,1.6.5,2.1,0h0l5.3-5.3c2.7-2.7,7.5-2.7,10.7,0l5.3,5.3c.5.5,1.6.5,2.1,0l5.9-5.9c2.7-2.7,6.9-2.7,10.1-.5,4.8,3.7,10.1,5.9,15.5,6.4-1.6-1.1-3.2-2.1-4.3-3.2-3.2-2.7-6.4-6.4-9.1-10.1-5.3-8-8.5-18.1-9.1-28.8-.5-2.7-.5-5.3-.5-8.5,0-10.1,2.1-20.2,5.9-27.7,1.1-2.7,2.7-4.8,4.3-6.4h-43.7ZM944.9,376.9h28.2c1.6,0,2.7-1.1,2.7-2.7h0c-.5-8-2.7-15.5-5.9-20.8-2.7-4.8-6.4-7.5-9.6-7.5s-3.7.5-5.3,2.1c-2.1,1.6-3.7,4.3-5.3,6.9-2.6,5.3-4.2,13.3-4.8,21.8Z"/>
    </g>
    <g class="cls-21">
      <path class="cls-9" d="M924.7,382.8h-21.8c-1.6,0-2.7-1.1-2.7-2.7s1.1-2.7,2.7-2.7h21.8c1.6,0,2.7,1.1,2.7,2.7s-1.1,2.7-2.7,2.7Z"/>
    </g>
    <g class="cls-21">
      <path class="cls-9" d="M914,397.2h-10.7c-1.6,0-2.7-1.1-2.7-2.7s1.1-2.7,2.7-2.7h10.7c1.6,0,2.7,1.1,2.7,2.7s-1.1,2.7-2.7,2.7Z"/>
    </g>
    <g class="cls-21">
      <path class="cls-9" d="M925.7,367.9h-20.2c-1.6,0-2.7-1.1-2.7-2.7s1.1-2.7,2.7-2.7h20.2c1.6,0,2.7,1.1,2.7,2.7s-1.1,2.7-2.7,2.7Z"/>
    </g>
  </g>
  <g class="cls-21">
    <path class="cls-1" d="M135.6,659.7h13.8c1.7,0,2.8-1.1,2.8-2.8v-13.8c0-1.7-1.1-2.8-2.8-2.8h-13.8c-1.7,0-2.8,1.1-2.8,2.8v13.8c0,1.7,1.1,2.8,2.8,2.8ZM138.4,646.5h7.7v7.7h-7.7v-7.7Z"/>
    <path class="cls-1" d="M184.8,621.1h-53c-8.8,0-16.6,7.2-16.6,16.6v10.5h-11.1c-8.8,0-16.6,7.2-16.6,16.6v39.2c0,8.8,7.2,16.6,16.6,16.6h56.9c7.2,0,13.8-2.8,18.8-7.7s7.7-11.6,7.7-18.8v-70.2c0-1.7-1.7-2.8-2.8-2.8ZM104.1,654.2h11.1v17.7h-21.5v-7.2c0-6.1,5-10.5,10.5-10.5ZM104.7,714.4h0c-6.1,0-10.5-5-10.5-10.5v-26.5h21v26.5c0,6.1-5,10.5-10.5,10.5h0ZM181.5,694.5c0,11-9.4,20.4-20.4,20.4h-44.2c2.2-2.8,3.9-6.6,3.9-10.5v-66.8c0-6.1,5-10.5,10.5-10.5h49.7v67.4h.6Z"/>
    <path class="cls-1" d="M135.6,677.4h31.5c1.7,0,2.8-1.1,2.8-2.8s-1.1-2.8-2.8-2.8h-31.5c-1.7,0-2.8,1.1-2.8,2.8,0,1.7,1.1,2.8,2.8,2.8Z"/>
    <path class="cls-1" d="M135.6,695.1h31.5c1.7,0,2.8-1.1,2.8-2.8s-1.1-2.8-2.8-2.8h-31.5c-1.7,0-2.8,1.1-2.8,2.8s1.1,2.8,2.8,2.8Z"/>
  </g>
  <path class="cls-5" d="M715.8,706.9l-18.4-31.8,12.3-21.2h0l1.1,3.3c.6,1.7,1.7,2.2,3.3,2.2h1.1c1.7-.6,2.8-2.2,2.2-3.9h0l-2.8-11.1h0c0-.6-.6-.6-.6-1.1s-.6-.6-1.1-1.1-.6-.6-1.1-.6h-1.7l-11.1,2.8c-1.7.6-2.8,2.2-2.2,3.9.6,1.7,2.2,2.8,3.9,2.2l3.3-1.1h0l-10,17.8-18.4-31.8c-2.2-2.2-5-3.3-8.4-3.3h0c-3.3,0-6.1,1.7-7.8,4.5l-40.7,70.2c-1.7,2.8-1.7,6.1,0,8.9,1.7,2.8,4.5,4.5,7.8,4.5h10.6c1.7,0,3.3-1.7,3.3-3.3s-1.7-3.3-3.3-3.3h-10.6c-1.1,0-1.7-1.1-2.2-1.1s-.6-1.1,0-2.2l40.7-70.2c1.1-1.1,2.8-1.7,3.9-.6l.6.6,20,35.1-9.5,16.2-7.2-13.9c-2.2-3.3-6.1-3.9-9.5-1.7l-1.7,1.7-16.7,29c-1.7,2.8-1.7,6.1,0,8.9,1.7,2.8,4.5,4.5,7.8,4.5h55.2c3.3,0,6.1-1.7,7.8-4.5,1.7-2.8,1.7-6.2,0-8.4ZM710.3,712.5c0,.6-1.1,1.1-2.2,1.1h-55.2c-1.1,0-1.7-1.1-2.2-1.1s-.6-1.1,0-2.2l16.7-28.4,7.8,13.4c1.7,2.8,5.6,3.9,8.4,2.2.6-.6,1.7-1.1,2.2-2.2l7.8-13.4,16.7,28.4c.5.6.5,1.7,0,2.2Z"/>
  <g>
    <g class="cls-21">
      <path class="cls-7" d="M695.4,1001h-8.6c-3.3,0-6.2-2.9-6.2-6.2v-3.3q0-.5-.5-.5h-24.9q-.5,0-.5.5v3.3c0,3.3-2.9,6.2-6.2,6.2h-8.6c-3.3,0-6.2-2.9-6.2-6.2v-4.3c-5.3-1.4-9.1-6.2-9.1-11.9v-51.6c.5-6.7,5.3-11.5,11.9-11.9h61.7c6.7,0,11.9,5.3,12.4,11.9v51.6c0,5.7-3.8,10.5-9.1,11.5v4.3c0,3.4-2.9,6.7-6.2,6.7h0ZM655.2,985.2h24.9c3.3,0,6.2,2.9,6.2,6.2v3.3q0,.5.5.5h8.1q.5,0,.5-.5v-6.7c0-1.4,1.4-2.9,2.9-2.9,3.3,0,6.2-2.9,6.2-6.2v-52.1c0-3.3-2.9-6.2-6.2-6.2h-61.7c-3.3,0-6.2,2.9-6.2,6.2v51.6c0,3.3,2.9,6.2,6.2,6.2s2.9,1.4,2.9,2.9v6.7q0,.5.5.5h8.6q.5,0,.5-.5v-2.9c0-3.3,2.4-6.2,5.7-6.2h.5Z"/>
    </g>
    <path class="cls-6" d="M675.8,948.9c-.5-1.4-2.4-2.4-3.8-1.9h0l-9.1,3.3v-9.6c0-1.9-1-3.3-2.9-3.3s-2.9,1.4-2.9,2.9v9.6l-9.6-2.9c-1.4-.5-2.9.5-3.3,1.9h0c-.5,1.9,0,3.3,1.4,3.8l9.6,2.9-5.7,8.1c-1,1.4-.5,2.9.5,3.8.5.5,1,.5,1.9.5s1.9-.5,2.4-1l5.7-8.1,5.7,8.1c.5,1,1.4,1,2.4,1s1.4,0,1.9-.5c1-1,1.4-2.4,1-3.3l-.5-.5-6.2-8.1,9.6-2.9c1.4-.5,2.4-2.4,1.9-3.8h0Z"/>
    <g class="cls-21">
      <path class="cls-7" d="M688.7,968c-1.4,0-2.9-1.4-2.9-2.9v-24.4c0-1.4,1.4-2.9,2.9-2.9s2.9,1,2.9,2.9h0v24.9c0,1.4-1.4,2.4-2.9,2.4Z"/>
    </g>
  </g>
  <g>
    <path class="cls-10" d="M453.5,689.9l-10-56.4c-.6-3.7-3.4-6.5-7-7.2-3.6-.7-7.3.8-9.3,3.9-.9,1.4-.5,3.2.9,4.1,1.4.9,3.2.5,4.1-.9,1-1.6,2.6-1.4,3.1-1.3.5,0,2,.6,2.3,2.4l10,56.4c.2,1.2-.3,2-.7,2.4s-1.1,1.1-2.3,1.1h-57.9c-1.7,0-3,1.3-3,3s1.3,3,3,3h7.7l-5.5,15.1c-.4,1.2-1.6,2-2.8,2h-2.4c-1.5,0-2.7-1-2.9-2.5l-10.5-59,46.4-21.9c1.5-.7,2.1-2.5,1.4-4-.7-1.5-2.5-2.1-4-1.4l-57.5,27.2c-3.6,1.7-5.7,5.7-5,9.7l4.9,27.5c.8,4.3,4.5,7.4,8.8,7.4h6.8l2.8,15.6c.8,4.3,4.5,7.4,8.8,7.4h2.4c3.8,0,7.2-2.4,8.4-5.9l6.2-17.1h43.8c2.7,0,5.2-1.2,6.9-3.2,1.7-2,2.4-4.7,2-7.3ZM365.4,694.5c-1.5,0-2.7-1-2.9-2.5l-4.9-27.5c-.2-1.3.5-2.7,1.7-3.2l5.5-2.6,6.4,35.8h-5.7s0,0,0,0Z"/>
    <path class="cls-12" d="M401,673.7c-1.4,0-2.7-.3-4-1l-13.8-6.9c-1.5-.7-2.1-2.5-1.3-4s2.5-2.1,4-1.3l13.8,6.9c1.4.7,3,.2,3.9-1l23.6-36.2c.9-1.4,2.8-1.8,4.1-.9,1.4.9,1.8,2.8.9,4.1l-23.6,36.2c-1.7,2.6-4.6,4.1-7.5,4.1Z"/>
  </g>
  <g>
    <path class="cls-12" d="M637.8,141.2c-1,0-2-.6-2.6-1.4l-17.7-30.8c-.6-1-.6-2,0-3l23.8-41.1c.6-1,1.4-1.4,2.6-1.4h47.3c1.4,0,2.6,1,2.8,2.4.2,1.4-.4,2.8-1.6,3.2,0,0-4.2,2-8.9,7-2.6,3-5,6.2-7,10.1s-3.4,7.9-4.6,12.5h8.1c1.6,0,3,1.4,3,3s-1.4,3-3,3h-11.9c-.8,0-1.6-.4-2.2-1s-.8-1.6-.6-2.4c1.2-6.4,3.2-12.5,6-17.7,2.2-4.2,5-8.1,8.1-11.5l2.4-2.4h-36.5l-22,38.1,16.9,29.4c.8,1.4.4,3.2-1,4-.4.2-1,.4-1.4.4v-.4h0Z"/>
    <path class="cls-2" d="M691.1,151.5h-47.3c-1.4,0-2.6-1-2.8-2.4-.2-1.4.4-2.8,1.6-3.2,0,0,4.2-2,8.9-7,2.6-3,5-6.2,7-10.1s3.4-7.9,4.6-12.5h-8.1c-1.6,0-3-1.4-3-3s1.4-3,3-3h11.9c.8,0,1.8.4,2.2,1,.6.6.8,1.6.6,2.4-1.2,6.4-3.2,12.5-6,17.7-2.2,4.2-5,8.1-8.1,11.5l-2.4,2.4h36.5l22-38.1-16.9-29.4c-.8-1.4-.4-3.2,1-4s3.2-.4,4,1l17.7,30.8c.6,1,.6,2,0,3l-23.8,41.1c-.6,1-1.4,1.4-2.6,1.4v.4h0Z"/>
  </g>
  <g>
    <g class="cls-21">
      <path class="cls-1" d="M154.4,359.1h-41.2c-1.6,0-2.9-1.2-2.9-2.9s1.2-2.9,2.9-2.9h41.2c1.6,0,2.9,1.2,2.9,2.9s-1.2,2.9-2.9,2.9Z"/>
    </g>
    <g class="cls-21">
      <path class="cls-1" d="M142.5,373.6h-29.3c-1.6,0-2.9-1.2-2.9-2.9s1.2-2.9,2.9-2.9h29.3c1.6,0,2.9,1.2,2.9,2.9s-1.2,2.9-2.9,2.9Z"/>
    </g>
    <g class="cls-21">
      <path class="cls-1" d="M168.1,435.5h-62.7c-7,0-12.7-5.7-12.7-12.7v-74.6c0-7,5.7-12.7,12.7-12.7h62.7c7,0,12.7,5.7,12.7,12.7v49.6c0,1.6-1.2,2.9-2.9,2.9s-2.9-1.2-2.9-2.9v-49.6c0-3.7-3.1-6.8-6.8-6.8h-62.7c-3.7,0-6.8,3.1-6.8,6.8v74.6c0,3.7,3.1,6.8,6.8,6.8h62.7c3.7,0,6.8-3.1,6.8-6.8v-10.2c0-1.6,1.2-2.9,2.9-2.9s2.9,1.2,2.9,2.9v10.2c0,7-5.7,12.7-12.7,12.7Z"/>
    </g>
    <path class="cls-4" d="M179.8,395.5c-1.2-1-3.1-.8-4.1.6,0,0-2.5,3.3-5.7,5.9-1.4,1.2-5.1,3.7-7.2,2.7-2.3-1.4-4.1-2-5.9-1.6-1.8.6-2.7,2-3.5,3.3-.6,1-1.2,2-2.5,3.3h0c-.6-.6-1.4-2.5-1.8-3.9-.2-1.2-1.2-2-2.5-2.3-1.2,0-2.5.4-2.9,1.4-2,3.5-4.7,7.6-8.2,10-.4.2-1,.6-1.4.4-.2,0-.6-.6-.4-1.2.4-3.7,3.7-9,8.8-15,4.1-4.9,8.2-8.6,8.2-8.6,1-1,1.2-2.5.6-3.7-.8-1.2-2.3-1.6-3.5-1.2-3.1,1.2-4.9,2-7.2,3.1-1.8,1-4.1,2-7.8,3.5-5.9,2.5-11.1,2.9-13.1,2.7h-.4c-1.6,0-2.9,1.2-2.9,2.9s1.2,2.9,2.7,2.9h0c.2,0,7,.6,16-3.3.4-.2,1-.4,1.4-.6-5.1,6.4-8.2,11.9-8.8,16.4-.4,2.9.8,5.5,3.3,7,1,.6,2.3,1,3.5,1s3.1-.4,4.5-1.4c2.7-1.8,4.9-4.5,7-7.2,1,1.4,2.3,2.5,3.7,2.9,2.7.8,4.7-.8,5.7-1.6,1.8-1.8,2.9-3.5,3.5-4.7h0c.2,0,.6.4,1.2.6,1.4.8,4.1,1.6,7.6.6,1.8-.6,4.1-1.8,6.1-3.7,3.9-3.1,6.8-6.8,6.8-7,1-1.2.8-3.1-.6-4.1h-.2Z"/>
  </g>
  <g>
    <path class="cls-15" d="M435.3,336h-65.5c-6,0-10.8,5-11,11v78c0,6,5,10.8,11,11h8.3c1.7,0,2.9-1.2,2.9-2.9v-22h21.6c6,0,10.8-5,11-11v-10.2c0-1.7-1.2-2.9-2.9-2.9h-24.5c-6,0-10.8,5-11,11v10h0v22.2h-5.4c-2.7,0-5-2.3-5-5v-78c0-2.7,2.3-5,5-5h65.5c2.7,0,5,2.3,5,5v78c0,2.7-2.3,5-5,5h-45.5c-1.7,0-2.9,1.2-2.9,2.9s1.2,2.9,2.9,2.9h45.5c6,0,10.8-5,11-11v-78c0-6-5-11-11-11ZM381.3,397.8c0-2.7,2.3-5,5-5h21.6v7.3c0,2.7-2.3,5-5,5h-21.6v-7.3Z"/>
    <path class="cls-15" d="M429.9,355.1c0-1.7-1.2-2.9-2.9-2.9h-40.7c-6,0-10.8,5-11,11v10.2c0,1.7,1.2,2.9,2.9,2.9h40.7c6,0,10.8-5,11-11v-10.2ZM424.1,365.3c0,2.7-2.3,5-5,5h-37.8v-7.3c0-2.7,2.3-5,5-5h37.8v7.3Z"/>
  </g>
  <g>
    <path class="cls-10" d="M974.1,716.3l-9.9-9.9c3-3.4,5.5-7.2,7.2-11.6,2.2-5.2,3.4-10.6,3.4-16.3s-1.2-11.1-3.4-16.3c-2.2-5-5.2-9.4-9.1-13.3-3.9-3.9-8.4-6.9-13.3-9.1-5.2-2.2-10.7-3.4-16.3-3.4s-11.1,1.2-16.3,3.4c-5,2.2-9.4,5.2-13.3,9.1-3.9,3.9-6.9,8.4-9.1,13.3-2.2,5.2-3.4,10.7-3.4,16.3s1.2,11.1,3.4,16.3c2.2,5,5.2,9.4,9.1,13.3s8.4,6.9,13.3,9.1c5.2,2.2,10.7,3.4,16.3,3.4h39.5c1,0,1.8-.7,2.4-1.5.3-.8,0-2-.5-2.7h0ZM932.8,715.6c-5,0-9.9-1-14.4-2.9-4.4-1.8-8.4-4.5-11.8-7.9s-6-7.4-7.9-11.8c-1.8-4.5-2.9-9.4-2.9-14.4s1-9.9,2.9-14.4c1.8-4.4,4.5-8.4,7.9-11.8,3.4-3.4,7.4-6,11.8-7.9,4.5-1.8,9.4-2.9,14.4-2.9s9.9,1,14.4,2.9c4.4,1.8,8.4,4.5,11.8,7.9s6,7.4,7.9,11.8c1.8,4.5,2.9,9.4,2.9,14.4s-1,9.9-2.9,14.4c-1.5,3.7-3.7,7.1-6.2,9.9l-22-21.8h3.2c1.3,0,2.5-1.2,2.5-2.5s-1.2-2.5-2.5-2.5h-9.2c-.7,0-1.3.2-1.7.7-.7.7-.8,1.3-.7,2.2v8.7c0,1.3,1.2,2.5,2.5,2.5s2.5-1.2,2.5-2.5v-3.2l31.1,31.1h-33.6Z"/>
    <path class="cls-10" d="M932.8,695.1c-9.1,0-16.6-7.4-16.6-16.6s7.4-16.6,16.6-16.6,16.6,7.4,16.6,16.6,0,2.9-.5,4.2.5,2.7,1.7,3c1.3.3,2.7-.5,3-1.7.5-1.8.7-3.7.7-5.5,0-5.7-2.2-11.1-6.2-15.1s-9.4-6.2-15.1-6.2-11.1,2.2-15.1,6.2-6.2,9.4-6.2,15.1,2.2,11.1,6.2,15.1,9.4,6.2,15.1,6.2,3.9-.3,5.7-.8c1.3-.3,2-1.7,1.7-3s-1.7-2-3-1.7-2.9.7-4.4.7h-.2v.2Z"/>
  </g>
  <g>
    <path class="cls-10" d="M137.1,926.6c-4.7,0-8.6-3.8-8.6-8.6s3.8-8.6,8.6-8.6,8.6,3.8,8.6,8.6-3.8,8.6-8.6,8.6ZM137.1,914.8c-1.9,0-3.5,1.6-3.5,3.5s1.6,3.5,3.5,3.5,3.5-1.6,3.5-3.5-1.6-3.5-3.5-3.5Z"/>
    <path class="cls-15" d="M172,952.5c-4.7,0-8.6-3.8-8.6-8.6s3.8-8.6,8.6-8.6,8.6,3.8,8.6,8.6-3.8,8.6-8.6,8.6ZM172,940.4c-1.9,0-3.5,1.6-3.5,3.5s1.6,3.5,3.5,3.5,3.5-1.6,3.5-3.5-1.6-3.5-3.5-3.5Z"/>
    <path class="cls-12" d="M158.5,993c-4.7,0-8.6-3.8-8.6-8.6s3.8-8.6,8.6-8.6,8.6,3.8,8.6,8.6-3.8,8.6-8.6,8.6ZM158.5,980.9c-1.9,0-3.5,1.6-3.5,3.5s1.6,3.5,3.5,3.5,3.5-1.6,3.5-3.5-1.6-3.5-3.5-3.5Z"/>
    <path class="cls-14" d="M115.6,993.2c-4.7,0-8.6-3.8-8.6-8.6s3.8-8.6,8.6-8.6,8.6,3.8,8.6,8.6-3.8,8.6-8.6,8.6ZM115.6,981.1c-1.9,0-3.5,1.6-3.5,3.5s1.6,3.5,3.5,3.5,3.5-1.6,3.5-3.5-1.6-3.5-3.5-3.5Z"/>
    <path class="cls-12" d="M102,952.5c-4.7,0-8.6-3.8-8.6-8.6s3.8-8.6,8.6-8.6,8.6,3.8,8.6,8.6-3.8,8.6-8.6,8.6ZM102,940.4c-1.9,0-3.5,1.6-3.5,3.5s1.6,3.5,3.5,3.5,3.5-1.6,3.5-3.5-1.6-3.5-3.5-3.5Z"/>
    <path class="cls-12" d="M108.8,961.7c-.7,0-1.4-.3-1.9-.9-.9-1-.7-2.6.3-3.7l10.3-8.7-6.1-25.1c-.3-1.4.5-2.8,1.9-3.1s2.8.5,3.1,1.9l6.5,26.5c0,.9,0,1.9-.9,2.6l-11.5,9.8c-.5.3-1,.5-1.6.5h-.2v.2Z"/>
    <path class="cls-14" d="M132.3,985.7c-1,0-1.9-.5-2.4-1.6l-5.1-12.4-25.8-1.9c-1.4,0-2.4-1.4-2.4-2.8s1.4-2.4,2.8-2.4l27.4,1.9c1,0,1.7.7,2.3,1.6l5.6,13.8c.5,1.2,0,2.8-1.4,3.3-.3,0-.7.2-1,.2v.3h.2Z"/>
    <path class="cls-12" d="M137.1,997.2c-.3,0-.7,0-1-.2-1.2-.5-1.9-2.1-1.4-3.3l10.3-25.3c.3-.9,1.2-1.6,2.3-1.6l14.8-1c1.4,0,2.6.9,2.8,2.4s-.9,2.6-2.4,2.8l-13.3,1-9.8,23.9c-.3,1-1.4,1.6-2.4,1.6v-.3h.2Z"/>
    <path class="cls-15" d="M174.6,969.8c-.5,0-1.2-.2-1.6-.5l-21-17.6c-.7-.7-1-1.6-.9-2.6l3.5-14.5c.3-1.4,1.7-2.3,3.1-1.9s2.3,1.7,1.9,3.1l-3.1,13.1,19.7,16.6c1,.9,1.2,2.4.3,3.7-.5.5-1.2.9-1.9.9h0l-.2-.2Z"/>
    <path class="cls-10" d="M137.1,939.9c-.5,0-.9,0-1.4-.3l-12.7-7.9c-1.2-.7-1.6-2.3-.9-3.5s2.3-1.6,3.5-.9l11.3,7,22-13.6c1.2-.7,2.8-.3,3.5.9s.3,2.8-.9,3.5l-23.2,14.5c-.3.2-.9.3-1.4.3h.2Z"/>
  </g>
  <path class="cls-15" d="M364.7,1003.5c-.6,0-1.2,0-1.6-.4-1-.6-1.4-1.8-1.2-2.9l8.4-51.5c.4-2.7,1.8-5.3,3.9-7s4.7-2.9,7.6-2.9h34.5l1.8-11.9h-3.3c-1.4,0-2.9-.6-3.7-1.6-1-1-1.2-2.5-1-3.9l2.3-13.8c.4-2.5,2.5-4.1,4.7-4.1h12.9c3.5,0,6.8,1.4,9,4.1,2.3,2.7,3.3,6.2,2.7,9.4l-5.1,31.8c0,1.4-1,2.7-2.3,3.3l-29,17.9c-1.8,1-4.1,1-5.5-.4l-13.6-10.7c-1.2-1-1.4-2.9-.4-4.1s2.9-1.4,4.1-.4l12.9,10.3,27.9-17.2,5.1-31.4c0-1.6,0-3.5-1.2-4.7-1-1.2-2.7-2.1-4.5-2.1h-12.1l-1.8,11.7h3.3c1.4,0,2.9.6,3.7,1.6s1.2,2.5,1,3.9l-2.3,13.8c-.4,2.5-2.5,4.1-4.7,4.1h-35.3c-2.9,0-5.3,2.1-5.7,4.9l-7.4,45.2,10.3-6.4c.8-.4,1.6-.8,2.7-.8h37.8c2.9,0,5.3-2.1,5.7-4.9l2.3-14.4c0-1.6,1.8-2.7,3.3-2.5,1.6.2,2.7,1.8,2.5,3.3l-2.3,14.4c-.4,2.7-1.8,5.3-3.9,7-2.1,1.8-4.7,2.9-7.6,2.9h-37.6l-15.6,9.7c-.4.2-1,.4-1.6.4v.4h0Z"/>
  <g>
    <g class="cls-20">
      <path class="cls-12" d="M916.7,952.7h-9.6c-1.4,0-2.6-1.2-2.6-2.6s1.2-2.6,2.6-2.6h9.6c1.4,0,2.6,1.2,2.6,2.6s-1.2,2.6-2.6,2.6Z"/>
    </g>
    <g class="cls-20">
      <path class="cls-12" d="M957,1003.8h-59.9c-4.2,0-7.6-3.5-7.6-7.6v-61.3c0-4.2,3.5-7.6,7.6-7.6h65c1.4,0,2.6,1.2,2.6,2.6s-1.2,2.6-2.6,2.6h-65c-1.4,0-2.6,1.2-2.6,2.6v61.3c0,1.4,1.2,2.6,2.6,2.6h59.9c1.4,0,2.6-1.2,2.6-2.6v-25.9c0-1.4,1.2-2.6,2.6-2.6s2.6,1.2,2.6,2.6v25.9c0,4.2-3.5,7.6-7.6,7.6h-.2v-.2Z"/>
    </g>
    <g class="cls-20">
      <path class="cls-12" d="M907.1,968.2c-1.4,0-2.6-1.2-2.6-2.6s1.2-2.6,2.6-2.6h24.3c1.4,0,2.6,1,2.6,2.6s-1.2,2.6-2.6,2.6h-24.3Z"/>
    </g>
    <g class="cls-20">
      <path class="cls-12" d="M907.1,983.5c-1.4,0-2.6-1.2-2.6-2.6s1.2-2.6,2.6-2.6h24.3c1.4,0,2.6,1,2.6,2.6s-1.2,2.6-2.6,2.6h-24.3Z"/>
    </g>
    <g class="cls-20">
      <path class="cls-12" d="M973.7,968.4c-.3,0-.9,0-1.2-.3l-14.2-7.8h0l-13.9-7.8c-.9-.5-1.2-1.2-1.4-2.3,0-.9.5-1.7,1.2-2.3l14.2-8.2,13.9-8.2c.9-.5,1.7-.5,2.6,0s1.2,1.4,1.2,2.3v32c0,.9-.5,1.7-1.2,2.3-.3.2-.9.3-1.2.3h0ZM960.8,955.7l10.4,5.7v-23.1l-9.9,5.9h0l-10.3,5.9,9.9,5.6h-.2Z"/>
    </g>
  </g>
</svg>